<?xml version="1.0" standalone="no"?>
<!DOCTYPE svg PUBLIC "-//W3C//DTD SVG 20010904//EN"
 "http://www.w3.org/TR/2001/REC-SVG-20010904/DTD/svg10.dtd">
<svg version="1.0" xmlns="http://www.w3.org/2000/svg"
 width="2079.000000pt" height="2079.000000pt" viewBox="0 0 2079.000000 2079.000000"
 preserveAspectRatio="xMidYMid meet">

<g transform="translate(0.000000,2079.000000) scale(0.100000,-0.100000)"
fill="#000000" stroke="none">
<path d="M10030 20784 c-937 -44 -1715 -169 -2544 -409 -592 -172 -1106 -372
-1681 -655 -843 -416 -1561 -897 -2295 -1539 -200 -174 -727 -701 -901 -901
-926 -1059 -1593 -2202 -2041 -3495 -305 -881 -476 -1739 -550 -2770 -16 -222
-16 -1018 0 -1240 52 -725 144 -1320 298 -1924 324 -1278 872 -2454 1640
-3524 340 -472 644 -828 1094 -1278 605 -605 1174 -1058 1883 -1498 473 -293
1080 -601 1582 -801 949 -379 1927 -614 2920 -704 373 -34 523 -40 960 -40
529 0 847 19 1325 80 2066 264 3992 1137 5560 2522 258 228 674 644 902 902
497 563 932 1177 1303 1840 111 198 354 690 440 890 398 922 655 1857 779
2830 61 479 80 796 80 1325 0 436 -6 589 -40 960 -150 1664 -717 3298 -1628
4695 -415 637 -818 1133 -1371 1685 -453 454 -808 758 -1282 1099 -1301 934
-2774 1549 -4339 1810 -574 96 -1028 135 -1629 140 -214 2 -424 2 -465 0z
m812 -474 c629 -31 1186 -107 1777 -241 1498 -339 2936 -1052 4126 -2043 1026
-856 1925 -1975 2466 -3073 71 -144 129 -267 129 -272 0 -5 -10 -11 -22 -14
-1050 -225 -1788 -308 -2763 -307 -665 0 -1144 33 -1783 126 -1205 173 -2429
542 -3523 1061 l-125 60 -57 -67 c-909 -1080 -1255 -2565 -916 -3940 59 -240
158 -534 242 -720 l25 -55 17 40 c9 22 39 94 67 160 349 836 977 1588 1753
2100 538 354 1147 599 1780 714 454 83 991 96 1453 35 810 -106 1612 -432
2246 -913 55 -42 107 -80 114 -85 8 -5 90 69 255 230 270 264 550 515 827 740
192 156 539 423 576 442 20 11 24 7 47 -46 114 -256 277 -716 383 -1082 339
-1166 461 -2402 358 -3610 -164 -1935 -862 -3721 -2057 -5265 -868 -1121
-2083 -2129 -3274 -2716 -144 -71 -267 -129 -272 -129 -5 0 -11 10 -14 23
-225 1049 -307 1787 -308 2762 0 661 35 1147 127 1783 136 943 380 1863 733
2761 132 336 243 585 441 995 l53 110 -39 33 c-135 116 -363 278 -562 400
-126 77 -507 266 -641 318 -1018 395 -2061 426 -3081 92 -203 -67 -640 -256
-640 -277 0 -3 33 -16 73 -29 39 -13 152 -55 251 -94 1003 -396 1836 -1117
2377 -2057 720 -1253 828 -2771 294 -4125 -55 -141 -191 -424 -277 -580 -88
-159 -268 -428 -395 -591 l-109 -141 170 -174 c359 -366 700 -764 1022 -1194
163 -216 156 -197 86 -228 -31 -14 -104 -44 -162 -67 -1671 -665 -3461 -866
-5240 -589 -1876 291 -3632 1122 -5060 2393 -912 813 -1717 1851 -2211 2853
-124 252 -137 283 -122 283 4 0 101 20 217 45 651 138 1287 220 1979 256 299
15 1145 6 1431 -15 765 -58 1410 -160 2129 -336 823 -201 1766 -544 2466 -894
134 -68 107 -79 256 106 491 613 814 1342 934 2113 31 201 42 307 50 521 28
695 -98 1352 -382 1997 -44 100 -65 137 -76 135 -10 -2 -35 -58 -71 -158 -197
-549 -461 -1015 -828 -1460 -113 -136 -459 -485 -587 -591 -787 -651 -1708
-1030 -2695 -1109 -204 -17 -608 -14 -800 5 -641 62 -1183 219 -1745 505 -310
158 -557 317 -823 533 l-72 58 -228 -219 c-259 -251 -486 -452 -752 -668 -192
-156 -539 -423 -576 -442 -20 -11 -24 -7 -47 46 -39 87 -102 249 -172 437
-398 1079 -604 2246 -605 3417 -1 1765 466 3494 1356 5015 883 1511 2163 2772
3696 3642 119 68 570 291 587 291 9 0 25 -69 82 -350 121 -597 194 -1182 229
-1835 14 -249 14 -945 0 -1205 -79 -1522 -423 -2988 -1024 -4361 -77 -178
-120 -269 -270 -582 -38 -79 -45 -101 -36 -112 21 -25 210 -164 340 -250 633
-417 1349 -661 2128 -726 178 -15 679 -6 842 15 515 66 925 181 1371 386 183
84 279 137 279 155 0 7 3 20 6 29 5 12 -16 25 -88 58 -891 401 -1622 1048
-2135 1890 -31 51 -100 179 -154 283 -276 537 -437 1080 -505 1710 -22 195
-24 675 -6 870 82 837 350 1591 807 2266 l92 136 -306 309 c-324 327 -570 600
-817 904 -156 192 -423 539 -442 576 -11 20 -7 24 46 47 87 39 249 102 437
172 820 302 1701 496 2585 570 406 34 906 44 1282 25z"/>
<path d="M8247 17488 c-104 -138 -282 -442 -384 -657 -600 -1259 -587 -2696
36 -3941 224 -446 473 -792 831 -1151 404 -406 811 -689 1327 -925 l73 -33
-16 37 c-91 213 -198 548 -254 795 -189 826 -148 1709 116 2520 141 433 367
888 617 1247 88 126 241 325 257 335 22 14 5 27 -117 91 -618 323 -1303 771
-1883 1227 -181 143 -459 375 -531 445 l-47 44 -25 -34z"/>
<path d="M14755 13633 c-951 -23 -1923 -378 -2670 -976 -616 -493 -1114 -1169
-1380 -1873 l-23 -62 111 53 c1046 491 2227 583 3347 262 615 -177 1126 -445
1695 -889 22 -17 22 -17 157 220 452 790 990 1537 1560 2166 59 65 108 122
108 126 0 11 -202 159 -330 242 -691 449 -1482 700 -2285 726 -110 4 -240 6
-290 5z"/>
<path d="M4798 10402 c-467 -816 -998 -1549 -1606 -2215 -179 -197 -179 -162
-2 -296 653 -496 1417 -799 2250 -891 259 -29 679 -29 942 0 1028 114 1968
567 2698 1299 473 475 838 1058 1052 1680 l39 115 -35 35 -35 35 -118 -58
c-497 -246 -1003 -394 -1577 -462 -181 -22 -684 -30 -873 -15 -956 78 -1817
410 -2574 990 l-26 20 -135 -237z"/>
<path d="M10730 10146 c0 -2 20 -47 45 -101 423 -912 538 -1989 318 -2990
-157 -717 -478 -1390 -930 -1956 -83 -102 -103 -133 -92 -140 8 -6 37 -21 64
-36 295 -152 834 -483 1185 -726 472 -328 1061 -801 1368 -1101 61 -59 75 -69
90 -60 22 14 191 237 275 362 405 609 640 1253 732 2007 22 182 31 615 16 811
-100 1302 -744 2481 -1783 3262 -371 279 -777 494 -1220 647 -38 13 -68 22
-68 21z"/>
</g>
</svg>
